<?xml version="1.0" encoding="UTF-8"?>
<svg width="24" height="24" viewBox="0 0 24 24" fill="none" xmlns="http://www.w3.org/2000/svg">
  <path d="M12 2C6.48 2 2 6.48 2 12C2 17.52 6.48 22 12 22C17.52 22 22 17.52 22 12C22 6.48 17.52 2 12 2ZM16.5 15.5C15.3 15.5 14 15.3 12.9 14.9C12.6 14.8 12.2 14.9 11.9 15.1L10.2 16.8C8.2 15.8 6.2 13.8 5.2 11.8L6.9 10.1C7.1 9.8 7.2 9.4 7.1 9.1C6.7 8 6.5 6.7 6.5 5.5C6.5 4.9 6 4.5 5.5 4.5H4C3.4 4.5 3 4.9 3 5.5C3 12.5 8.5 18 15.5 18C16 18 16.5 17.6 16.5 17V15.5Z" fill="#2B3A67"/>
</svg> 